<svg xmlns="http://www.w3.org/2000/svg" xmlns:xlink="http://www.w3.org/1999/xlink" version="1.1" x="0px" y="0px" viewBox="0 0 100 125" enable-background="new 0 0 100 100" xml:space="preserve"><path d="M50,5.03C25.2,5.03,5.03,25.2,5.03,50S25.2,94.97,50,94.97S94.97,74.8,94.97,50S74.8,5.03,50,5.03z M80.12,71.69  c2.23,0,4.31-0.13,6.01-0.37C78.96,83.43,65.89,91.64,50.9,91.96c2.29-3.48,6.83-11.24,9.75-21.97c-3.42-0.93-6.99-2.14-10.65-3.69  c-3.75,1.59-7.41,2.82-10.9,3.75c2.81,10.13,7.05,17.82,10.22,21.91c-15.08-0.24-28.25-8.47-35.45-20.64  c1.7,0.24,3.78,0.37,6.01,0.37c3.39,0,9.89-0.34,17.95-2.38c-0.9-3.37-1.63-7.01-2.12-10.88c-3.24-2.33-6.12-4.87-8.66-7.47  C19.32,58.89,15,66.66,13.24,70.22c-3.32-6-5.21-12.89-5.21-20.22c0-7.49,1.97-14.53,5.43-20.62c1.89,4.09,6.22,12.27,13.61,20.09  c2.43-2.42,5.18-4.85,8.27-7.17c0.4-4.24,1.22-8.23,2.27-11.92c-8.23-2.17-15.34-2.64-19.87-2.64c-1.3,0-2.43,0.04-3.35,0.08  C21.73,16.08,34.7,8.21,49.49,8.03c-2.5,3.54-7.44,11.32-10.58,21.62c3.55,0.99,7.28,2.3,11.09,4.01c3.64-1.64,7.21-2.91,10.61-3.88  c-2.89-10.57-7.34-18.23-9.65-21.74c14.6,0.33,27.39,8.16,34.65,19.78c-0.92-0.04-2.05-0.08-3.35-0.08  c-4.62,0-11.93,0.49-20.37,2.77c0.89,3.47,1.61,7.23,2.04,11.25c3.39,2.49,6.39,5.1,9,7.71c7.39-7.82,11.72-16,13.61-20.09  C90,35.47,91.97,42.51,91.97,50c0,7.33-1.89,14.22-5.21,20.22C85,66.66,80.67,58.89,72.94,50.97c-2.64,2.7-5.66,5.35-9.07,7.76  c-0.43,3.75-1.11,7.26-1.95,10.52C70.09,71.34,76.69,71.69,80.12,71.69z"/><path d="M35.216,43.686c-2.752,2.124-5.22,4.329-7.425,6.531c2.296,2.36,4.875,4.671,7.753,6.814  c-0.313-2.882-0.488-5.887-0.488-9.006C35.055,46.555,35.113,45.108,35.216,43.686z"/><path d="M36.861,59.247c0.478,3.459,1.152,6.736,1.962,9.797c3.101-0.826,6.41-1.905,9.855-3.31c-2.633-1.17-5.301-2.51-7.981-4.064  C39.367,60.899,38.089,60.089,36.861,59.247z"/><path d="M48.734,34.224c-3.477-1.507-6.874-2.677-10.114-3.576c-0.971,3.372-1.737,6.999-2.163,10.825  c2.017-1.459,4.167-2.871,6.469-4.207C44.871,36.138,46.811,35.129,48.734,34.224z"/><path d="M64.073,43.149c0.196,2.197,0.309,4.463,0.309,6.802c0,2.551-0.129,5.02-0.36,7.402c3.053-2.232,5.774-4.656,8.185-7.133  C69.815,47.829,67.11,45.437,64.073,43.149z"/><path d="M62.804,40.946c-0.437-3.612-1.106-7.012-1.924-10.163c-3.088,0.879-6.316,2.012-9.613,3.441  c1.923,0.905,3.863,1.914,5.807,3.042C59.098,38.44,61.002,39.674,62.804,40.946z"/><path d="M51.323,65.734c3.349,1.367,6.568,2.423,9.594,3.239c0.759-2.947,1.388-6.11,1.818-9.46  c-1.106,0.745-2.245,1.468-3.432,2.157C56.624,63.224,53.956,64.565,51.323,65.734z"/><path d="M62.96,42.324c-1.996-1.448-4.123-2.848-6.4-4.169c-2.199-1.275-4.39-2.383-6.559-3.37c-2.169,0.988-4.36,2.095-6.559,3.37  c-2.554,1.481-4.923,3.061-7.123,4.696c-0.149,1.691-0.235,3.415-0.235,5.174c0,3.408,0.215,6.692,0.595,9.834  c1.44,1.022,2.949,2.002,4.535,2.922c2.98,1.728,5.922,3.172,8.788,4.401c2.866-1.229,5.808-2.672,8.788-4.401  c1.434-0.831,2.801-1.715,4.115-2.631c0.289-2.626,0.451-5.363,0.451-8.199C63.355,47.319,63.211,44.776,62.96,42.324z M50,56.05  c-3.341,0-6.05-2.709-6.05-6.05c0-3.341,2.709-6.05,6.05-6.05s6.05,2.709,6.05,6.05C56.05,53.341,53.341,56.05,50,56.05z"/><text x="0" y="115" fill="#000000" font-size="5px" font-weight="bold" font-family="'Helvetica Neue', Helvetica, Arial-Unicode, Arial, Sans-serif">Created by Juan Pablo Pérez Beltrán</text><text x="0" y="120" fill="#000000" font-size="5px" font-weight="bold" font-family="'Helvetica Neue', Helvetica, Arial-Unicode, Arial, Sans-serif">from the Noun Project</text></svg>